%TF.GenerationSoftware,KiCad,Pcbnew,9.0.2+dfsg-1*%
%TF.CreationDate,2026-05-06T19:10:26+00:00*%
%TF.ProjectId,rgb_switches,7267625f-7377-4697-9463-6865732e6b69,rev?*%
%TF.SameCoordinates,Original*%
%TF.FileFunction,Other,User*%
%FSLAX46Y46*%
G04 Gerber Fmt 4.6, Leading zero omitted, Abs format (unit mm)*
G04 Created by KiCad (PCBNEW 9.0.2+dfsg-1) date 2026-05-06 19:10:26*
%MOMM*%
%LPD*%
G01*
G04 APERTURE LIST*
%ADD10C,0.050000*%
G04 APERTURE END LIST*
D10*
%TO.C,C1*%
X23520000Y-29270000D02*
X26480000Y-29270000D01*
X23520000Y-30730000D02*
X23520000Y-29270000D01*
X26480000Y-29270000D02*
X26480000Y-30730000D01*
X26480000Y-30730000D02*
X23520000Y-30730000D01*
%TO.C,R3*%
X58520000Y-47270000D02*
X61480000Y-47270000D01*
X58520000Y-48730000D02*
X58520000Y-47270000D01*
X61480000Y-47270000D02*
X61480000Y-48730000D01*
X61480000Y-48730000D02*
X58520000Y-48730000D01*
%TO.C,SW3*%
X37250000Y-45750000D02*
X37250000Y-50250000D01*
X37250000Y-45750000D02*
X46750000Y-45750000D01*
X46750000Y-45750000D02*
X46750000Y-50250000D01*
X46750000Y-50250000D02*
X37250000Y-50250000D01*
%TO.C,D1*%
X72450000Y-28350000D02*
X72450000Y-31650000D01*
X72450000Y-31650000D02*
X77550000Y-31650000D01*
X77550000Y-28350000D02*
X72450000Y-28350000D01*
X77550000Y-31650000D02*
X77550000Y-28350000D01*
%TO.C,SW1*%
X37250000Y-9750000D02*
X37250000Y-14250000D01*
X37250000Y-9750000D02*
X46750000Y-9750000D01*
X46750000Y-9750000D02*
X46750000Y-14250000D01*
X46750000Y-14250000D02*
X37250000Y-14250000D01*
%TO.C,R1*%
X58520000Y-11270000D02*
X61480000Y-11270000D01*
X58520000Y-12730000D02*
X58520000Y-11270000D01*
X61480000Y-11270000D02*
X61480000Y-12730000D01*
X61480000Y-12730000D02*
X58520000Y-12730000D01*
%TO.C,SW2*%
X37250000Y-27750000D02*
X37250000Y-32250000D01*
X37250000Y-27750000D02*
X46750000Y-27750000D01*
X46750000Y-27750000D02*
X46750000Y-32250000D01*
X46750000Y-32250000D02*
X37250000Y-32250000D01*
%TO.C,J1*%
X5870000Y-27120000D02*
X5870000Y-33580000D01*
X5870000Y-27120000D02*
X14140000Y-27120000D01*
X14140000Y-33580000D02*
X5870000Y-33580000D01*
X14140000Y-33580000D02*
X14140000Y-27120000D01*
%TO.C,R2*%
X58520000Y-29270000D02*
X61480000Y-29270000D01*
X58520000Y-30730000D02*
X58520000Y-29270000D01*
X61480000Y-29270000D02*
X61480000Y-30730000D01*
X61480000Y-30730000D02*
X58520000Y-30730000D01*
%TD*%
M02*
