%TF.GenerationSoftware,KiCad,Pcbnew,9.0.2+dfsg-1*%
%TF.CreationDate,2026-05-06T19:10:26+00:00*%
%TF.ProjectId,rgb_switches,7267625f-7377-4697-9463-6865732e6b69,rev?*%
%TF.SameCoordinates,Original*%
%TF.FileFunction,AssemblyDrawing,Top*%
%FSLAX46Y46*%
G04 Gerber Fmt 4.6, Leading zero omitted, Abs format (unit mm)*
G04 Created by KiCad (PCBNEW 9.0.2+dfsg-1) date 2026-05-06 19:10:26*
%MOMM*%
%LPD*%
G01*
G04 APERTURE LIST*
%ADD10C,0.150000*%
%ADD11C,0.060000*%
%ADD12C,0.075000*%
%ADD13C,0.100000*%
%ADD14C,0.120000*%
G04 APERTURE END LIST*
D10*
X23928571Y-31884819D02*
X23357143Y-31884819D01*
X23642857Y-31884819D02*
X23642857Y-30884819D01*
X23642857Y-30884819D02*
X23547619Y-31027676D01*
X23547619Y-31027676D02*
X23452381Y-31122914D01*
X23452381Y-31122914D02*
X23357143Y-31170533D01*
X24547619Y-30884819D02*
X24642857Y-30884819D01*
X24642857Y-30884819D02*
X24738095Y-30932438D01*
X24738095Y-30932438D02*
X24785714Y-30980057D01*
X24785714Y-30980057D02*
X24833333Y-31075295D01*
X24833333Y-31075295D02*
X24880952Y-31265771D01*
X24880952Y-31265771D02*
X24880952Y-31503866D01*
X24880952Y-31503866D02*
X24833333Y-31694342D01*
X24833333Y-31694342D02*
X24785714Y-31789580D01*
X24785714Y-31789580D02*
X24738095Y-31837200D01*
X24738095Y-31837200D02*
X24642857Y-31884819D01*
X24642857Y-31884819D02*
X24547619Y-31884819D01*
X24547619Y-31884819D02*
X24452381Y-31837200D01*
X24452381Y-31837200D02*
X24404762Y-31789580D01*
X24404762Y-31789580D02*
X24357143Y-31694342D01*
X24357143Y-31694342D02*
X24309524Y-31503866D01*
X24309524Y-31503866D02*
X24309524Y-31265771D01*
X24309524Y-31265771D02*
X24357143Y-31075295D01*
X24357143Y-31075295D02*
X24404762Y-30980057D01*
X24404762Y-30980057D02*
X24452381Y-30932438D01*
X24452381Y-30932438D02*
X24547619Y-30884819D01*
X25738095Y-31218152D02*
X25738095Y-31884819D01*
X25309524Y-31218152D02*
X25309524Y-31741961D01*
X25309524Y-31741961D02*
X25357143Y-31837200D01*
X25357143Y-31837200D02*
X25452381Y-31884819D01*
X25452381Y-31884819D02*
X25595238Y-31884819D01*
X25595238Y-31884819D02*
X25690476Y-31837200D01*
X25690476Y-31837200D02*
X25738095Y-31789580D01*
X26547619Y-31361009D02*
X26214286Y-31361009D01*
X26214286Y-31884819D02*
X26214286Y-30884819D01*
X26214286Y-30884819D02*
X26690476Y-30884819D01*
D11*
X24933333Y-30143832D02*
X24914285Y-30162880D01*
X24914285Y-30162880D02*
X24857143Y-30181927D01*
X24857143Y-30181927D02*
X24819047Y-30181927D01*
X24819047Y-30181927D02*
X24761904Y-30162880D01*
X24761904Y-30162880D02*
X24723809Y-30124784D01*
X24723809Y-30124784D02*
X24704762Y-30086689D01*
X24704762Y-30086689D02*
X24685714Y-30010499D01*
X24685714Y-30010499D02*
X24685714Y-29953356D01*
X24685714Y-29953356D02*
X24704762Y-29877165D01*
X24704762Y-29877165D02*
X24723809Y-29839070D01*
X24723809Y-29839070D02*
X24761904Y-29800975D01*
X24761904Y-29800975D02*
X24819047Y-29781927D01*
X24819047Y-29781927D02*
X24857143Y-29781927D01*
X24857143Y-29781927D02*
X24914285Y-29800975D01*
X24914285Y-29800975D02*
X24933333Y-29820022D01*
X25314285Y-30181927D02*
X25085714Y-30181927D01*
X25200000Y-30181927D02*
X25200000Y-29781927D01*
X25200000Y-29781927D02*
X25161904Y-29839070D01*
X25161904Y-29839070D02*
X25123809Y-29877165D01*
X25123809Y-29877165D02*
X25085714Y-29896213D01*
D10*
X59333333Y-49884819D02*
X58761905Y-49884819D01*
X59047619Y-49884819D02*
X59047619Y-48884819D01*
X59047619Y-48884819D02*
X58952381Y-49027676D01*
X58952381Y-49027676D02*
X58857143Y-49122914D01*
X58857143Y-49122914D02*
X58761905Y-49170533D01*
X59714286Y-48980057D02*
X59761905Y-48932438D01*
X59761905Y-48932438D02*
X59857143Y-48884819D01*
X59857143Y-48884819D02*
X60095238Y-48884819D01*
X60095238Y-48884819D02*
X60190476Y-48932438D01*
X60190476Y-48932438D02*
X60238095Y-48980057D01*
X60238095Y-48980057D02*
X60285714Y-49075295D01*
X60285714Y-49075295D02*
X60285714Y-49170533D01*
X60285714Y-49170533D02*
X60238095Y-49313390D01*
X60238095Y-49313390D02*
X59666667Y-49884819D01*
X59666667Y-49884819D02*
X60285714Y-49884819D01*
X60904762Y-48884819D02*
X61000000Y-48884819D01*
X61000000Y-48884819D02*
X61095238Y-48932438D01*
X61095238Y-48932438D02*
X61142857Y-48980057D01*
X61142857Y-48980057D02*
X61190476Y-49075295D01*
X61190476Y-49075295D02*
X61238095Y-49265771D01*
X61238095Y-49265771D02*
X61238095Y-49503866D01*
X61238095Y-49503866D02*
X61190476Y-49694342D01*
X61190476Y-49694342D02*
X61142857Y-49789580D01*
X61142857Y-49789580D02*
X61095238Y-49837200D01*
X61095238Y-49837200D02*
X61000000Y-49884819D01*
X61000000Y-49884819D02*
X60904762Y-49884819D01*
X60904762Y-49884819D02*
X60809524Y-49837200D01*
X60809524Y-49837200D02*
X60761905Y-49789580D01*
X60761905Y-49789580D02*
X60714286Y-49694342D01*
X60714286Y-49694342D02*
X60666667Y-49503866D01*
X60666667Y-49503866D02*
X60666667Y-49265771D01*
X60666667Y-49265771D02*
X60714286Y-49075295D01*
X60714286Y-49075295D02*
X60761905Y-48980057D01*
X60761905Y-48980057D02*
X60809524Y-48932438D01*
X60809524Y-48932438D02*
X60904762Y-48884819D01*
D11*
X59933333Y-48181927D02*
X59800000Y-47991451D01*
X59704762Y-48181927D02*
X59704762Y-47781927D01*
X59704762Y-47781927D02*
X59857143Y-47781927D01*
X59857143Y-47781927D02*
X59895238Y-47800975D01*
X59895238Y-47800975D02*
X59914285Y-47820022D01*
X59914285Y-47820022D02*
X59933333Y-47858118D01*
X59933333Y-47858118D02*
X59933333Y-47915260D01*
X59933333Y-47915260D02*
X59914285Y-47953356D01*
X59914285Y-47953356D02*
X59895238Y-47972403D01*
X59895238Y-47972403D02*
X59857143Y-47991451D01*
X59857143Y-47991451D02*
X59704762Y-47991451D01*
X60066666Y-47781927D02*
X60314285Y-47781927D01*
X60314285Y-47781927D02*
X60180952Y-47934308D01*
X60180952Y-47934308D02*
X60238095Y-47934308D01*
X60238095Y-47934308D02*
X60276190Y-47953356D01*
X60276190Y-47953356D02*
X60295238Y-47972403D01*
X60295238Y-47972403D02*
X60314285Y-48010499D01*
X60314285Y-48010499D02*
X60314285Y-48105737D01*
X60314285Y-48105737D02*
X60295238Y-48143832D01*
X60295238Y-48143832D02*
X60276190Y-48162880D01*
X60276190Y-48162880D02*
X60238095Y-48181927D01*
X60238095Y-48181927D02*
X60123809Y-48181927D01*
X60123809Y-48181927D02*
X60085714Y-48162880D01*
X60085714Y-48162880D02*
X60066666Y-48143832D01*
D10*
X38904762Y-51557200D02*
X39047619Y-51604819D01*
X39047619Y-51604819D02*
X39285714Y-51604819D01*
X39285714Y-51604819D02*
X39380952Y-51557200D01*
X39380952Y-51557200D02*
X39428571Y-51509580D01*
X39428571Y-51509580D02*
X39476190Y-51414342D01*
X39476190Y-51414342D02*
X39476190Y-51319104D01*
X39476190Y-51319104D02*
X39428571Y-51223866D01*
X39428571Y-51223866D02*
X39380952Y-51176247D01*
X39380952Y-51176247D02*
X39285714Y-51128628D01*
X39285714Y-51128628D02*
X39095238Y-51081009D01*
X39095238Y-51081009D02*
X39000000Y-51033390D01*
X39000000Y-51033390D02*
X38952381Y-50985771D01*
X38952381Y-50985771D02*
X38904762Y-50890533D01*
X38904762Y-50890533D02*
X38904762Y-50795295D01*
X38904762Y-50795295D02*
X38952381Y-50700057D01*
X38952381Y-50700057D02*
X39000000Y-50652438D01*
X39000000Y-50652438D02*
X39095238Y-50604819D01*
X39095238Y-50604819D02*
X39333333Y-50604819D01*
X39333333Y-50604819D02*
X39476190Y-50652438D01*
X39809524Y-50604819D02*
X40047619Y-51604819D01*
X40047619Y-51604819D02*
X40238095Y-50890533D01*
X40238095Y-50890533D02*
X40428571Y-51604819D01*
X40428571Y-51604819D02*
X40666667Y-50604819D01*
X40809524Y-51700057D02*
X41571428Y-51700057D01*
X41761905Y-51557200D02*
X41904762Y-51604819D01*
X41904762Y-51604819D02*
X42142857Y-51604819D01*
X42142857Y-51604819D02*
X42238095Y-51557200D01*
X42238095Y-51557200D02*
X42285714Y-51509580D01*
X42285714Y-51509580D02*
X42333333Y-51414342D01*
X42333333Y-51414342D02*
X42333333Y-51319104D01*
X42333333Y-51319104D02*
X42285714Y-51223866D01*
X42285714Y-51223866D02*
X42238095Y-51176247D01*
X42238095Y-51176247D02*
X42142857Y-51128628D01*
X42142857Y-51128628D02*
X41952381Y-51081009D01*
X41952381Y-51081009D02*
X41857143Y-51033390D01*
X41857143Y-51033390D02*
X41809524Y-50985771D01*
X41809524Y-50985771D02*
X41761905Y-50890533D01*
X41761905Y-50890533D02*
X41761905Y-50795295D01*
X41761905Y-50795295D02*
X41809524Y-50700057D01*
X41809524Y-50700057D02*
X41857143Y-50652438D01*
X41857143Y-50652438D02*
X41952381Y-50604819D01*
X41952381Y-50604819D02*
X42190476Y-50604819D01*
X42190476Y-50604819D02*
X42333333Y-50652438D01*
X42761905Y-51604819D02*
X42761905Y-50604819D01*
X42761905Y-50604819D02*
X43142857Y-50604819D01*
X43142857Y-50604819D02*
X43238095Y-50652438D01*
X43238095Y-50652438D02*
X43285714Y-50700057D01*
X43285714Y-50700057D02*
X43333333Y-50795295D01*
X43333333Y-50795295D02*
X43333333Y-50938152D01*
X43333333Y-50938152D02*
X43285714Y-51033390D01*
X43285714Y-51033390D02*
X43238095Y-51081009D01*
X43238095Y-51081009D02*
X43142857Y-51128628D01*
X43142857Y-51128628D02*
X42761905Y-51128628D01*
X43761905Y-51604819D02*
X43761905Y-50604819D01*
X43761905Y-50604819D02*
X44000000Y-50604819D01*
X44000000Y-50604819D02*
X44142857Y-50652438D01*
X44142857Y-50652438D02*
X44238095Y-50747676D01*
X44238095Y-50747676D02*
X44285714Y-50842914D01*
X44285714Y-50842914D02*
X44333333Y-51033390D01*
X44333333Y-51033390D02*
X44333333Y-51176247D01*
X44333333Y-51176247D02*
X44285714Y-51366723D01*
X44285714Y-51366723D02*
X44238095Y-51461961D01*
X44238095Y-51461961D02*
X44142857Y-51557200D01*
X44142857Y-51557200D02*
X44000000Y-51604819D01*
X44000000Y-51604819D02*
X43761905Y-51604819D01*
X44619048Y-50604819D02*
X45190476Y-50604819D01*
X44904762Y-51604819D02*
X44904762Y-50604819D01*
X40666667Y-45357200D02*
X40809524Y-45404819D01*
X40809524Y-45404819D02*
X41047619Y-45404819D01*
X41047619Y-45404819D02*
X41142857Y-45357200D01*
X41142857Y-45357200D02*
X41190476Y-45309580D01*
X41190476Y-45309580D02*
X41238095Y-45214342D01*
X41238095Y-45214342D02*
X41238095Y-45119104D01*
X41238095Y-45119104D02*
X41190476Y-45023866D01*
X41190476Y-45023866D02*
X41142857Y-44976247D01*
X41142857Y-44976247D02*
X41047619Y-44928628D01*
X41047619Y-44928628D02*
X40857143Y-44881009D01*
X40857143Y-44881009D02*
X40761905Y-44833390D01*
X40761905Y-44833390D02*
X40714286Y-44785771D01*
X40714286Y-44785771D02*
X40666667Y-44690533D01*
X40666667Y-44690533D02*
X40666667Y-44595295D01*
X40666667Y-44595295D02*
X40714286Y-44500057D01*
X40714286Y-44500057D02*
X40761905Y-44452438D01*
X40761905Y-44452438D02*
X40857143Y-44404819D01*
X40857143Y-44404819D02*
X41095238Y-44404819D01*
X41095238Y-44404819D02*
X41238095Y-44452438D01*
X41571429Y-44404819D02*
X41809524Y-45404819D01*
X41809524Y-45404819D02*
X42000000Y-44690533D01*
X42000000Y-44690533D02*
X42190476Y-45404819D01*
X42190476Y-45404819D02*
X42428572Y-44404819D01*
X42714286Y-44404819D02*
X43333333Y-44404819D01*
X43333333Y-44404819D02*
X43000000Y-44785771D01*
X43000000Y-44785771D02*
X43142857Y-44785771D01*
X43142857Y-44785771D02*
X43238095Y-44833390D01*
X43238095Y-44833390D02*
X43285714Y-44881009D01*
X43285714Y-44881009D02*
X43333333Y-44976247D01*
X43333333Y-44976247D02*
X43333333Y-45214342D01*
X43333333Y-45214342D02*
X43285714Y-45309580D01*
X43285714Y-45309580D02*
X43238095Y-45357200D01*
X43238095Y-45357200D02*
X43142857Y-45404819D01*
X43142857Y-45404819D02*
X42857143Y-45404819D01*
X42857143Y-45404819D02*
X42761905Y-45357200D01*
X42761905Y-45357200D02*
X42714286Y-45309580D01*
X72571428Y-32954819D02*
X72238095Y-32478628D01*
X72000000Y-32954819D02*
X72000000Y-31954819D01*
X72000000Y-31954819D02*
X72380952Y-31954819D01*
X72380952Y-31954819D02*
X72476190Y-32002438D01*
X72476190Y-32002438D02*
X72523809Y-32050057D01*
X72523809Y-32050057D02*
X72571428Y-32145295D01*
X72571428Y-32145295D02*
X72571428Y-32288152D01*
X72571428Y-32288152D02*
X72523809Y-32383390D01*
X72523809Y-32383390D02*
X72476190Y-32431009D01*
X72476190Y-32431009D02*
X72380952Y-32478628D01*
X72380952Y-32478628D02*
X72000000Y-32478628D01*
X73523809Y-32002438D02*
X73428571Y-31954819D01*
X73428571Y-31954819D02*
X73285714Y-31954819D01*
X73285714Y-31954819D02*
X73142857Y-32002438D01*
X73142857Y-32002438D02*
X73047619Y-32097676D01*
X73047619Y-32097676D02*
X73000000Y-32192914D01*
X73000000Y-32192914D02*
X72952381Y-32383390D01*
X72952381Y-32383390D02*
X72952381Y-32526247D01*
X72952381Y-32526247D02*
X73000000Y-32716723D01*
X73000000Y-32716723D02*
X73047619Y-32811961D01*
X73047619Y-32811961D02*
X73142857Y-32907200D01*
X73142857Y-32907200D02*
X73285714Y-32954819D01*
X73285714Y-32954819D02*
X73380952Y-32954819D01*
X73380952Y-32954819D02*
X73523809Y-32907200D01*
X73523809Y-32907200D02*
X73571428Y-32859580D01*
X73571428Y-32859580D02*
X73571428Y-32526247D01*
X73571428Y-32526247D02*
X73380952Y-32526247D01*
X74333333Y-32431009D02*
X74476190Y-32478628D01*
X74476190Y-32478628D02*
X74523809Y-32526247D01*
X74523809Y-32526247D02*
X74571428Y-32621485D01*
X74571428Y-32621485D02*
X74571428Y-32764342D01*
X74571428Y-32764342D02*
X74523809Y-32859580D01*
X74523809Y-32859580D02*
X74476190Y-32907200D01*
X74476190Y-32907200D02*
X74380952Y-32954819D01*
X74380952Y-32954819D02*
X74000000Y-32954819D01*
X74000000Y-32954819D02*
X74000000Y-31954819D01*
X74000000Y-31954819D02*
X74333333Y-31954819D01*
X74333333Y-31954819D02*
X74428571Y-32002438D01*
X74428571Y-32002438D02*
X74476190Y-32050057D01*
X74476190Y-32050057D02*
X74523809Y-32145295D01*
X74523809Y-32145295D02*
X74523809Y-32240533D01*
X74523809Y-32240533D02*
X74476190Y-32335771D01*
X74476190Y-32335771D02*
X74428571Y-32383390D01*
X74428571Y-32383390D02*
X74333333Y-32431009D01*
X74333333Y-32431009D02*
X74000000Y-32431009D01*
X74761905Y-33050057D02*
X75523809Y-33050057D01*
X76238095Y-32954819D02*
X75761905Y-32954819D01*
X75761905Y-32954819D02*
X75761905Y-31954819D01*
X76571429Y-32431009D02*
X76904762Y-32431009D01*
X77047619Y-32954819D02*
X76571429Y-32954819D01*
X76571429Y-32954819D02*
X76571429Y-31954819D01*
X76571429Y-31954819D02*
X77047619Y-31954819D01*
X77476191Y-32954819D02*
X77476191Y-31954819D01*
X77476191Y-31954819D02*
X77714286Y-31954819D01*
X77714286Y-31954819D02*
X77857143Y-32002438D01*
X77857143Y-32002438D02*
X77952381Y-32097676D01*
X77952381Y-32097676D02*
X78000000Y-32192914D01*
X78000000Y-32192914D02*
X78047619Y-32383390D01*
X78047619Y-32383390D02*
X78047619Y-32526247D01*
X78047619Y-32526247D02*
X78000000Y-32716723D01*
X78000000Y-32716723D02*
X77952381Y-32811961D01*
X77952381Y-32811961D02*
X77857143Y-32907200D01*
X77857143Y-32907200D02*
X77714286Y-32954819D01*
X77714286Y-32954819D02*
X77476191Y-32954819D01*
D12*
X74630952Y-30227409D02*
X74630952Y-29727409D01*
X74630952Y-29727409D02*
X74750000Y-29727409D01*
X74750000Y-29727409D02*
X74821428Y-29751219D01*
X74821428Y-29751219D02*
X74869047Y-29798838D01*
X74869047Y-29798838D02*
X74892857Y-29846457D01*
X74892857Y-29846457D02*
X74916666Y-29941695D01*
X74916666Y-29941695D02*
X74916666Y-30013123D01*
X74916666Y-30013123D02*
X74892857Y-30108361D01*
X74892857Y-30108361D02*
X74869047Y-30155980D01*
X74869047Y-30155980D02*
X74821428Y-30203600D01*
X74821428Y-30203600D02*
X74750000Y-30227409D01*
X74750000Y-30227409D02*
X74630952Y-30227409D01*
X75392857Y-30227409D02*
X75107143Y-30227409D01*
X75250000Y-30227409D02*
X75250000Y-29727409D01*
X75250000Y-29727409D02*
X75202381Y-29798838D01*
X75202381Y-29798838D02*
X75154762Y-29846457D01*
X75154762Y-29846457D02*
X75107143Y-29870266D01*
D10*
X38904762Y-15557200D02*
X39047619Y-15604819D01*
X39047619Y-15604819D02*
X39285714Y-15604819D01*
X39285714Y-15604819D02*
X39380952Y-15557200D01*
X39380952Y-15557200D02*
X39428571Y-15509580D01*
X39428571Y-15509580D02*
X39476190Y-15414342D01*
X39476190Y-15414342D02*
X39476190Y-15319104D01*
X39476190Y-15319104D02*
X39428571Y-15223866D01*
X39428571Y-15223866D02*
X39380952Y-15176247D01*
X39380952Y-15176247D02*
X39285714Y-15128628D01*
X39285714Y-15128628D02*
X39095238Y-15081009D01*
X39095238Y-15081009D02*
X39000000Y-15033390D01*
X39000000Y-15033390D02*
X38952381Y-14985771D01*
X38952381Y-14985771D02*
X38904762Y-14890533D01*
X38904762Y-14890533D02*
X38904762Y-14795295D01*
X38904762Y-14795295D02*
X38952381Y-14700057D01*
X38952381Y-14700057D02*
X39000000Y-14652438D01*
X39000000Y-14652438D02*
X39095238Y-14604819D01*
X39095238Y-14604819D02*
X39333333Y-14604819D01*
X39333333Y-14604819D02*
X39476190Y-14652438D01*
X39809524Y-14604819D02*
X40047619Y-15604819D01*
X40047619Y-15604819D02*
X40238095Y-14890533D01*
X40238095Y-14890533D02*
X40428571Y-15604819D01*
X40428571Y-15604819D02*
X40666667Y-14604819D01*
X40809524Y-15700057D02*
X41571428Y-15700057D01*
X41761905Y-15557200D02*
X41904762Y-15604819D01*
X41904762Y-15604819D02*
X42142857Y-15604819D01*
X42142857Y-15604819D02*
X42238095Y-15557200D01*
X42238095Y-15557200D02*
X42285714Y-15509580D01*
X42285714Y-15509580D02*
X42333333Y-15414342D01*
X42333333Y-15414342D02*
X42333333Y-15319104D01*
X42333333Y-15319104D02*
X42285714Y-15223866D01*
X42285714Y-15223866D02*
X42238095Y-15176247D01*
X42238095Y-15176247D02*
X42142857Y-15128628D01*
X42142857Y-15128628D02*
X41952381Y-15081009D01*
X41952381Y-15081009D02*
X41857143Y-15033390D01*
X41857143Y-15033390D02*
X41809524Y-14985771D01*
X41809524Y-14985771D02*
X41761905Y-14890533D01*
X41761905Y-14890533D02*
X41761905Y-14795295D01*
X41761905Y-14795295D02*
X41809524Y-14700057D01*
X41809524Y-14700057D02*
X41857143Y-14652438D01*
X41857143Y-14652438D02*
X41952381Y-14604819D01*
X41952381Y-14604819D02*
X42190476Y-14604819D01*
X42190476Y-14604819D02*
X42333333Y-14652438D01*
X42761905Y-15604819D02*
X42761905Y-14604819D01*
X42761905Y-14604819D02*
X43142857Y-14604819D01*
X43142857Y-14604819D02*
X43238095Y-14652438D01*
X43238095Y-14652438D02*
X43285714Y-14700057D01*
X43285714Y-14700057D02*
X43333333Y-14795295D01*
X43333333Y-14795295D02*
X43333333Y-14938152D01*
X43333333Y-14938152D02*
X43285714Y-15033390D01*
X43285714Y-15033390D02*
X43238095Y-15081009D01*
X43238095Y-15081009D02*
X43142857Y-15128628D01*
X43142857Y-15128628D02*
X42761905Y-15128628D01*
X43761905Y-15604819D02*
X43761905Y-14604819D01*
X43761905Y-14604819D02*
X44000000Y-14604819D01*
X44000000Y-14604819D02*
X44142857Y-14652438D01*
X44142857Y-14652438D02*
X44238095Y-14747676D01*
X44238095Y-14747676D02*
X44285714Y-14842914D01*
X44285714Y-14842914D02*
X44333333Y-15033390D01*
X44333333Y-15033390D02*
X44333333Y-15176247D01*
X44333333Y-15176247D02*
X44285714Y-15366723D01*
X44285714Y-15366723D02*
X44238095Y-15461961D01*
X44238095Y-15461961D02*
X44142857Y-15557200D01*
X44142857Y-15557200D02*
X44000000Y-15604819D01*
X44000000Y-15604819D02*
X43761905Y-15604819D01*
X44619048Y-14604819D02*
X45190476Y-14604819D01*
X44904762Y-15604819D02*
X44904762Y-14604819D01*
X40666667Y-9357200D02*
X40809524Y-9404819D01*
X40809524Y-9404819D02*
X41047619Y-9404819D01*
X41047619Y-9404819D02*
X41142857Y-9357200D01*
X41142857Y-9357200D02*
X41190476Y-9309580D01*
X41190476Y-9309580D02*
X41238095Y-9214342D01*
X41238095Y-9214342D02*
X41238095Y-9119104D01*
X41238095Y-9119104D02*
X41190476Y-9023866D01*
X41190476Y-9023866D02*
X41142857Y-8976247D01*
X41142857Y-8976247D02*
X41047619Y-8928628D01*
X41047619Y-8928628D02*
X40857143Y-8881009D01*
X40857143Y-8881009D02*
X40761905Y-8833390D01*
X40761905Y-8833390D02*
X40714286Y-8785771D01*
X40714286Y-8785771D02*
X40666667Y-8690533D01*
X40666667Y-8690533D02*
X40666667Y-8595295D01*
X40666667Y-8595295D02*
X40714286Y-8500057D01*
X40714286Y-8500057D02*
X40761905Y-8452438D01*
X40761905Y-8452438D02*
X40857143Y-8404819D01*
X40857143Y-8404819D02*
X41095238Y-8404819D01*
X41095238Y-8404819D02*
X41238095Y-8452438D01*
X41571429Y-8404819D02*
X41809524Y-9404819D01*
X41809524Y-9404819D02*
X42000000Y-8690533D01*
X42000000Y-8690533D02*
X42190476Y-9404819D01*
X42190476Y-9404819D02*
X42428572Y-8404819D01*
X43333333Y-9404819D02*
X42761905Y-9404819D01*
X43047619Y-9404819D02*
X43047619Y-8404819D01*
X43047619Y-8404819D02*
X42952381Y-8547676D01*
X42952381Y-8547676D02*
X42857143Y-8642914D01*
X42857143Y-8642914D02*
X42761905Y-8690533D01*
X59333333Y-13884819D02*
X58761905Y-13884819D01*
X59047619Y-13884819D02*
X59047619Y-12884819D01*
X59047619Y-12884819D02*
X58952381Y-13027676D01*
X58952381Y-13027676D02*
X58857143Y-13122914D01*
X58857143Y-13122914D02*
X58761905Y-13170533D01*
X60238095Y-12884819D02*
X59761905Y-12884819D01*
X59761905Y-12884819D02*
X59714286Y-13361009D01*
X59714286Y-13361009D02*
X59761905Y-13313390D01*
X59761905Y-13313390D02*
X59857143Y-13265771D01*
X59857143Y-13265771D02*
X60095238Y-13265771D01*
X60095238Y-13265771D02*
X60190476Y-13313390D01*
X60190476Y-13313390D02*
X60238095Y-13361009D01*
X60238095Y-13361009D02*
X60285714Y-13456247D01*
X60285714Y-13456247D02*
X60285714Y-13694342D01*
X60285714Y-13694342D02*
X60238095Y-13789580D01*
X60238095Y-13789580D02*
X60190476Y-13837200D01*
X60190476Y-13837200D02*
X60095238Y-13884819D01*
X60095238Y-13884819D02*
X59857143Y-13884819D01*
X59857143Y-13884819D02*
X59761905Y-13837200D01*
X59761905Y-13837200D02*
X59714286Y-13789580D01*
X60904762Y-12884819D02*
X61000000Y-12884819D01*
X61000000Y-12884819D02*
X61095238Y-12932438D01*
X61095238Y-12932438D02*
X61142857Y-12980057D01*
X61142857Y-12980057D02*
X61190476Y-13075295D01*
X61190476Y-13075295D02*
X61238095Y-13265771D01*
X61238095Y-13265771D02*
X61238095Y-13503866D01*
X61238095Y-13503866D02*
X61190476Y-13694342D01*
X61190476Y-13694342D02*
X61142857Y-13789580D01*
X61142857Y-13789580D02*
X61095238Y-13837200D01*
X61095238Y-13837200D02*
X61000000Y-13884819D01*
X61000000Y-13884819D02*
X60904762Y-13884819D01*
X60904762Y-13884819D02*
X60809524Y-13837200D01*
X60809524Y-13837200D02*
X60761905Y-13789580D01*
X60761905Y-13789580D02*
X60714286Y-13694342D01*
X60714286Y-13694342D02*
X60666667Y-13503866D01*
X60666667Y-13503866D02*
X60666667Y-13265771D01*
X60666667Y-13265771D02*
X60714286Y-13075295D01*
X60714286Y-13075295D02*
X60761905Y-12980057D01*
X60761905Y-12980057D02*
X60809524Y-12932438D01*
X60809524Y-12932438D02*
X60904762Y-12884819D01*
D11*
X59933333Y-12181927D02*
X59800000Y-11991451D01*
X59704762Y-12181927D02*
X59704762Y-11781927D01*
X59704762Y-11781927D02*
X59857143Y-11781927D01*
X59857143Y-11781927D02*
X59895238Y-11800975D01*
X59895238Y-11800975D02*
X59914285Y-11820022D01*
X59914285Y-11820022D02*
X59933333Y-11858118D01*
X59933333Y-11858118D02*
X59933333Y-11915260D01*
X59933333Y-11915260D02*
X59914285Y-11953356D01*
X59914285Y-11953356D02*
X59895238Y-11972403D01*
X59895238Y-11972403D02*
X59857143Y-11991451D01*
X59857143Y-11991451D02*
X59704762Y-11991451D01*
X60314285Y-12181927D02*
X60085714Y-12181927D01*
X60200000Y-12181927D02*
X60200000Y-11781927D01*
X60200000Y-11781927D02*
X60161904Y-11839070D01*
X60161904Y-11839070D02*
X60123809Y-11877165D01*
X60123809Y-11877165D02*
X60085714Y-11896213D01*
D10*
X38904762Y-33557200D02*
X39047619Y-33604819D01*
X39047619Y-33604819D02*
X39285714Y-33604819D01*
X39285714Y-33604819D02*
X39380952Y-33557200D01*
X39380952Y-33557200D02*
X39428571Y-33509580D01*
X39428571Y-33509580D02*
X39476190Y-33414342D01*
X39476190Y-33414342D02*
X39476190Y-33319104D01*
X39476190Y-33319104D02*
X39428571Y-33223866D01*
X39428571Y-33223866D02*
X39380952Y-33176247D01*
X39380952Y-33176247D02*
X39285714Y-33128628D01*
X39285714Y-33128628D02*
X39095238Y-33081009D01*
X39095238Y-33081009D02*
X39000000Y-33033390D01*
X39000000Y-33033390D02*
X38952381Y-32985771D01*
X38952381Y-32985771D02*
X38904762Y-32890533D01*
X38904762Y-32890533D02*
X38904762Y-32795295D01*
X38904762Y-32795295D02*
X38952381Y-32700057D01*
X38952381Y-32700057D02*
X39000000Y-32652438D01*
X39000000Y-32652438D02*
X39095238Y-32604819D01*
X39095238Y-32604819D02*
X39333333Y-32604819D01*
X39333333Y-32604819D02*
X39476190Y-32652438D01*
X39809524Y-32604819D02*
X40047619Y-33604819D01*
X40047619Y-33604819D02*
X40238095Y-32890533D01*
X40238095Y-32890533D02*
X40428571Y-33604819D01*
X40428571Y-33604819D02*
X40666667Y-32604819D01*
X40809524Y-33700057D02*
X41571428Y-33700057D01*
X41761905Y-33557200D02*
X41904762Y-33604819D01*
X41904762Y-33604819D02*
X42142857Y-33604819D01*
X42142857Y-33604819D02*
X42238095Y-33557200D01*
X42238095Y-33557200D02*
X42285714Y-33509580D01*
X42285714Y-33509580D02*
X42333333Y-33414342D01*
X42333333Y-33414342D02*
X42333333Y-33319104D01*
X42333333Y-33319104D02*
X42285714Y-33223866D01*
X42285714Y-33223866D02*
X42238095Y-33176247D01*
X42238095Y-33176247D02*
X42142857Y-33128628D01*
X42142857Y-33128628D02*
X41952381Y-33081009D01*
X41952381Y-33081009D02*
X41857143Y-33033390D01*
X41857143Y-33033390D02*
X41809524Y-32985771D01*
X41809524Y-32985771D02*
X41761905Y-32890533D01*
X41761905Y-32890533D02*
X41761905Y-32795295D01*
X41761905Y-32795295D02*
X41809524Y-32700057D01*
X41809524Y-32700057D02*
X41857143Y-32652438D01*
X41857143Y-32652438D02*
X41952381Y-32604819D01*
X41952381Y-32604819D02*
X42190476Y-32604819D01*
X42190476Y-32604819D02*
X42333333Y-32652438D01*
X42761905Y-33604819D02*
X42761905Y-32604819D01*
X42761905Y-32604819D02*
X43142857Y-32604819D01*
X43142857Y-32604819D02*
X43238095Y-32652438D01*
X43238095Y-32652438D02*
X43285714Y-32700057D01*
X43285714Y-32700057D02*
X43333333Y-32795295D01*
X43333333Y-32795295D02*
X43333333Y-32938152D01*
X43333333Y-32938152D02*
X43285714Y-33033390D01*
X43285714Y-33033390D02*
X43238095Y-33081009D01*
X43238095Y-33081009D02*
X43142857Y-33128628D01*
X43142857Y-33128628D02*
X42761905Y-33128628D01*
X43761905Y-33604819D02*
X43761905Y-32604819D01*
X43761905Y-32604819D02*
X44000000Y-32604819D01*
X44000000Y-32604819D02*
X44142857Y-32652438D01*
X44142857Y-32652438D02*
X44238095Y-32747676D01*
X44238095Y-32747676D02*
X44285714Y-32842914D01*
X44285714Y-32842914D02*
X44333333Y-33033390D01*
X44333333Y-33033390D02*
X44333333Y-33176247D01*
X44333333Y-33176247D02*
X44285714Y-33366723D01*
X44285714Y-33366723D02*
X44238095Y-33461961D01*
X44238095Y-33461961D02*
X44142857Y-33557200D01*
X44142857Y-33557200D02*
X44000000Y-33604819D01*
X44000000Y-33604819D02*
X43761905Y-33604819D01*
X44619048Y-32604819D02*
X45190476Y-32604819D01*
X44904762Y-33604819D02*
X44904762Y-32604819D01*
X40666667Y-27357200D02*
X40809524Y-27404819D01*
X40809524Y-27404819D02*
X41047619Y-27404819D01*
X41047619Y-27404819D02*
X41142857Y-27357200D01*
X41142857Y-27357200D02*
X41190476Y-27309580D01*
X41190476Y-27309580D02*
X41238095Y-27214342D01*
X41238095Y-27214342D02*
X41238095Y-27119104D01*
X41238095Y-27119104D02*
X41190476Y-27023866D01*
X41190476Y-27023866D02*
X41142857Y-26976247D01*
X41142857Y-26976247D02*
X41047619Y-26928628D01*
X41047619Y-26928628D02*
X40857143Y-26881009D01*
X40857143Y-26881009D02*
X40761905Y-26833390D01*
X40761905Y-26833390D02*
X40714286Y-26785771D01*
X40714286Y-26785771D02*
X40666667Y-26690533D01*
X40666667Y-26690533D02*
X40666667Y-26595295D01*
X40666667Y-26595295D02*
X40714286Y-26500057D01*
X40714286Y-26500057D02*
X40761905Y-26452438D01*
X40761905Y-26452438D02*
X40857143Y-26404819D01*
X40857143Y-26404819D02*
X41095238Y-26404819D01*
X41095238Y-26404819D02*
X41238095Y-26452438D01*
X41571429Y-26404819D02*
X41809524Y-27404819D01*
X41809524Y-27404819D02*
X42000000Y-26690533D01*
X42000000Y-26690533D02*
X42190476Y-27404819D01*
X42190476Y-27404819D02*
X42428572Y-26404819D01*
X42761905Y-26500057D02*
X42809524Y-26452438D01*
X42809524Y-26452438D02*
X42904762Y-26404819D01*
X42904762Y-26404819D02*
X43142857Y-26404819D01*
X43142857Y-26404819D02*
X43238095Y-26452438D01*
X43238095Y-26452438D02*
X43285714Y-26500057D01*
X43285714Y-26500057D02*
X43333333Y-26595295D01*
X43333333Y-26595295D02*
X43333333Y-26690533D01*
X43333333Y-26690533D02*
X43285714Y-26833390D01*
X43285714Y-26833390D02*
X42714286Y-27404819D01*
X42714286Y-27404819D02*
X43333333Y-27404819D01*
X5451190Y-33889819D02*
X5451190Y-34699342D01*
X5451190Y-34699342D02*
X5498809Y-34794580D01*
X5498809Y-34794580D02*
X5546428Y-34842200D01*
X5546428Y-34842200D02*
X5641666Y-34889819D01*
X5641666Y-34889819D02*
X5832142Y-34889819D01*
X5832142Y-34889819D02*
X5927380Y-34842200D01*
X5927380Y-34842200D02*
X5974999Y-34794580D01*
X5974999Y-34794580D02*
X6022618Y-34699342D01*
X6022618Y-34699342D02*
X6022618Y-33889819D01*
X6451190Y-34842200D02*
X6594047Y-34889819D01*
X6594047Y-34889819D02*
X6832142Y-34889819D01*
X6832142Y-34889819D02*
X6927380Y-34842200D01*
X6927380Y-34842200D02*
X6974999Y-34794580D01*
X6974999Y-34794580D02*
X7022618Y-34699342D01*
X7022618Y-34699342D02*
X7022618Y-34604104D01*
X7022618Y-34604104D02*
X6974999Y-34508866D01*
X6974999Y-34508866D02*
X6927380Y-34461247D01*
X6927380Y-34461247D02*
X6832142Y-34413628D01*
X6832142Y-34413628D02*
X6641666Y-34366009D01*
X6641666Y-34366009D02*
X6546428Y-34318390D01*
X6546428Y-34318390D02*
X6498809Y-34270771D01*
X6498809Y-34270771D02*
X6451190Y-34175533D01*
X6451190Y-34175533D02*
X6451190Y-34080295D01*
X6451190Y-34080295D02*
X6498809Y-33985057D01*
X6498809Y-33985057D02*
X6546428Y-33937438D01*
X6546428Y-33937438D02*
X6641666Y-33889819D01*
X6641666Y-33889819D02*
X6879761Y-33889819D01*
X6879761Y-33889819D02*
X7022618Y-33937438D01*
X7784523Y-34366009D02*
X7927380Y-34413628D01*
X7927380Y-34413628D02*
X7974999Y-34461247D01*
X7974999Y-34461247D02*
X8022618Y-34556485D01*
X8022618Y-34556485D02*
X8022618Y-34699342D01*
X8022618Y-34699342D02*
X7974999Y-34794580D01*
X7974999Y-34794580D02*
X7927380Y-34842200D01*
X7927380Y-34842200D02*
X7832142Y-34889819D01*
X7832142Y-34889819D02*
X7451190Y-34889819D01*
X7451190Y-34889819D02*
X7451190Y-33889819D01*
X7451190Y-33889819D02*
X7784523Y-33889819D01*
X7784523Y-33889819D02*
X7879761Y-33937438D01*
X7879761Y-33937438D02*
X7927380Y-33985057D01*
X7927380Y-33985057D02*
X7974999Y-34080295D01*
X7974999Y-34080295D02*
X7974999Y-34175533D01*
X7974999Y-34175533D02*
X7927380Y-34270771D01*
X7927380Y-34270771D02*
X7879761Y-34318390D01*
X7879761Y-34318390D02*
X7784523Y-34366009D01*
X7784523Y-34366009D02*
X7451190Y-34366009D01*
X8213095Y-34985057D02*
X8974999Y-34985057D01*
X9546428Y-34366009D02*
X9689285Y-34413628D01*
X9689285Y-34413628D02*
X9736904Y-34461247D01*
X9736904Y-34461247D02*
X9784523Y-34556485D01*
X9784523Y-34556485D02*
X9784523Y-34699342D01*
X9784523Y-34699342D02*
X9736904Y-34794580D01*
X9736904Y-34794580D02*
X9689285Y-34842200D01*
X9689285Y-34842200D02*
X9594047Y-34889819D01*
X9594047Y-34889819D02*
X9213095Y-34889819D01*
X9213095Y-34889819D02*
X9213095Y-33889819D01*
X9213095Y-33889819D02*
X9546428Y-33889819D01*
X9546428Y-33889819D02*
X9641666Y-33937438D01*
X9641666Y-33937438D02*
X9689285Y-33985057D01*
X9689285Y-33985057D02*
X9736904Y-34080295D01*
X9736904Y-34080295D02*
X9736904Y-34175533D01*
X9736904Y-34175533D02*
X9689285Y-34270771D01*
X9689285Y-34270771D02*
X9641666Y-34318390D01*
X9641666Y-34318390D02*
X9546428Y-34366009D01*
X9546428Y-34366009D02*
X9213095Y-34366009D01*
X9975000Y-34985057D02*
X10736904Y-34985057D01*
X10975000Y-34889819D02*
X10975000Y-33889819D01*
X10975000Y-33889819D02*
X11308333Y-34604104D01*
X11308333Y-34604104D02*
X11641666Y-33889819D01*
X11641666Y-33889819D02*
X11641666Y-34889819D01*
X12117857Y-34889819D02*
X12117857Y-34223152D01*
X12117857Y-33889819D02*
X12070238Y-33937438D01*
X12070238Y-33937438D02*
X12117857Y-33985057D01*
X12117857Y-33985057D02*
X12165476Y-33937438D01*
X12165476Y-33937438D02*
X12117857Y-33889819D01*
X12117857Y-33889819D02*
X12117857Y-33985057D01*
X13022618Y-34842200D02*
X12927380Y-34889819D01*
X12927380Y-34889819D02*
X12736904Y-34889819D01*
X12736904Y-34889819D02*
X12641666Y-34842200D01*
X12641666Y-34842200D02*
X12594047Y-34794580D01*
X12594047Y-34794580D02*
X12546428Y-34699342D01*
X12546428Y-34699342D02*
X12546428Y-34413628D01*
X12546428Y-34413628D02*
X12594047Y-34318390D01*
X12594047Y-34318390D02*
X12641666Y-34270771D01*
X12641666Y-34270771D02*
X12736904Y-34223152D01*
X12736904Y-34223152D02*
X12927380Y-34223152D01*
X12927380Y-34223152D02*
X13022618Y-34270771D01*
X13451190Y-34889819D02*
X13451190Y-34223152D01*
X13451190Y-34413628D02*
X13498809Y-34318390D01*
X13498809Y-34318390D02*
X13546428Y-34270771D01*
X13546428Y-34270771D02*
X13641666Y-34223152D01*
X13641666Y-34223152D02*
X13736904Y-34223152D01*
X14213095Y-34889819D02*
X14117857Y-34842200D01*
X14117857Y-34842200D02*
X14070238Y-34794580D01*
X14070238Y-34794580D02*
X14022619Y-34699342D01*
X14022619Y-34699342D02*
X14022619Y-34413628D01*
X14022619Y-34413628D02*
X14070238Y-34318390D01*
X14070238Y-34318390D02*
X14117857Y-34270771D01*
X14117857Y-34270771D02*
X14213095Y-34223152D01*
X14213095Y-34223152D02*
X14355952Y-34223152D01*
X14355952Y-34223152D02*
X14451190Y-34270771D01*
X14451190Y-34270771D02*
X14498809Y-34318390D01*
X14498809Y-34318390D02*
X14546428Y-34413628D01*
X14546428Y-34413628D02*
X14546428Y-34699342D01*
X14546428Y-34699342D02*
X14498809Y-34794580D01*
X14498809Y-34794580D02*
X14451190Y-34842200D01*
X14451190Y-34842200D02*
X14355952Y-34889819D01*
X14355952Y-34889819D02*
X14213095Y-34889819D01*
X9641666Y-29439819D02*
X9641666Y-30154104D01*
X9641666Y-30154104D02*
X9594047Y-30296961D01*
X9594047Y-30296961D02*
X9498809Y-30392200D01*
X9498809Y-30392200D02*
X9355952Y-30439819D01*
X9355952Y-30439819D02*
X9260714Y-30439819D01*
X10641666Y-30439819D02*
X10070238Y-30439819D01*
X10355952Y-30439819D02*
X10355952Y-29439819D01*
X10355952Y-29439819D02*
X10260714Y-29582676D01*
X10260714Y-29582676D02*
X10165476Y-29677914D01*
X10165476Y-29677914D02*
X10070238Y-29725533D01*
X59333333Y-31884819D02*
X58761905Y-31884819D01*
X59047619Y-31884819D02*
X59047619Y-30884819D01*
X59047619Y-30884819D02*
X58952381Y-31027676D01*
X58952381Y-31027676D02*
X58857143Y-31122914D01*
X58857143Y-31122914D02*
X58761905Y-31170533D01*
X59714286Y-30980057D02*
X59761905Y-30932438D01*
X59761905Y-30932438D02*
X59857143Y-30884819D01*
X59857143Y-30884819D02*
X60095238Y-30884819D01*
X60095238Y-30884819D02*
X60190476Y-30932438D01*
X60190476Y-30932438D02*
X60238095Y-30980057D01*
X60238095Y-30980057D02*
X60285714Y-31075295D01*
X60285714Y-31075295D02*
X60285714Y-31170533D01*
X60285714Y-31170533D02*
X60238095Y-31313390D01*
X60238095Y-31313390D02*
X59666667Y-31884819D01*
X59666667Y-31884819D02*
X60285714Y-31884819D01*
X60904762Y-30884819D02*
X61000000Y-30884819D01*
X61000000Y-30884819D02*
X61095238Y-30932438D01*
X61095238Y-30932438D02*
X61142857Y-30980057D01*
X61142857Y-30980057D02*
X61190476Y-31075295D01*
X61190476Y-31075295D02*
X61238095Y-31265771D01*
X61238095Y-31265771D02*
X61238095Y-31503866D01*
X61238095Y-31503866D02*
X61190476Y-31694342D01*
X61190476Y-31694342D02*
X61142857Y-31789580D01*
X61142857Y-31789580D02*
X61095238Y-31837200D01*
X61095238Y-31837200D02*
X61000000Y-31884819D01*
X61000000Y-31884819D02*
X60904762Y-31884819D01*
X60904762Y-31884819D02*
X60809524Y-31837200D01*
X60809524Y-31837200D02*
X60761905Y-31789580D01*
X60761905Y-31789580D02*
X60714286Y-31694342D01*
X60714286Y-31694342D02*
X60666667Y-31503866D01*
X60666667Y-31503866D02*
X60666667Y-31265771D01*
X60666667Y-31265771D02*
X60714286Y-31075295D01*
X60714286Y-31075295D02*
X60761905Y-30980057D01*
X60761905Y-30980057D02*
X60809524Y-30932438D01*
X60809524Y-30932438D02*
X60904762Y-30884819D01*
D11*
X59933333Y-30181927D02*
X59800000Y-29991451D01*
X59704762Y-30181927D02*
X59704762Y-29781927D01*
X59704762Y-29781927D02*
X59857143Y-29781927D01*
X59857143Y-29781927D02*
X59895238Y-29800975D01*
X59895238Y-29800975D02*
X59914285Y-29820022D01*
X59914285Y-29820022D02*
X59933333Y-29858118D01*
X59933333Y-29858118D02*
X59933333Y-29915260D01*
X59933333Y-29915260D02*
X59914285Y-29953356D01*
X59914285Y-29953356D02*
X59895238Y-29972403D01*
X59895238Y-29972403D02*
X59857143Y-29991451D01*
X59857143Y-29991451D02*
X59704762Y-29991451D01*
X60085714Y-29820022D02*
X60104762Y-29800975D01*
X60104762Y-29800975D02*
X60142857Y-29781927D01*
X60142857Y-29781927D02*
X60238095Y-29781927D01*
X60238095Y-29781927D02*
X60276190Y-29800975D01*
X60276190Y-29800975D02*
X60295238Y-29820022D01*
X60295238Y-29820022D02*
X60314285Y-29858118D01*
X60314285Y-29858118D02*
X60314285Y-29896213D01*
X60314285Y-29896213D02*
X60295238Y-29953356D01*
X60295238Y-29953356D02*
X60066666Y-30181927D01*
X60066666Y-30181927D02*
X60314285Y-30181927D01*
D13*
%TO.C,C1*%
X24200000Y-29600000D02*
X25800000Y-29600000D01*
X24200000Y-30400000D02*
X24200000Y-29600000D01*
X25800000Y-29600000D02*
X25800000Y-30400000D01*
X25800000Y-30400000D02*
X24200000Y-30400000D01*
%TO.C,R3*%
X59200000Y-47587500D02*
X60800000Y-47587500D01*
X59200000Y-48412500D02*
X59200000Y-47587500D01*
X60800000Y-47587500D02*
X60800000Y-48412500D01*
X60800000Y-48412500D02*
X59200000Y-48412500D01*
%TO.C,SW3*%
X37500000Y-46200000D02*
X46500000Y-46200000D01*
X37500000Y-49800000D02*
X37500000Y-46200000D01*
X40250000Y-47250000D02*
X40250000Y-48750000D01*
X40250000Y-47250000D02*
X43750000Y-47250000D01*
X41750000Y-47250000D02*
X41750000Y-48750000D01*
X43750000Y-47250000D02*
X43750000Y-48750000D01*
X43750000Y-48750000D02*
X40250000Y-48750000D01*
X46500000Y-46200000D02*
X46500000Y-49800000D01*
X46500000Y-49800000D02*
X37500000Y-49800000D01*
%TO.C,D1*%
X73400000Y-28600000D02*
X73400000Y-31400000D01*
X73400000Y-31400000D02*
X76600000Y-31400000D01*
X74400000Y-28600000D02*
X73400000Y-29600000D01*
X76600000Y-28600000D02*
X73400000Y-28600000D01*
X76600000Y-31400000D02*
X76600000Y-28600000D01*
X76120000Y-30000000D02*
G75*
G02*
X73880000Y-30000000I-1120000J0D01*
G01*
X73880000Y-30000000D02*
G75*
G02*
X76120000Y-30000000I1120000J0D01*
G01*
%TO.C,SW1*%
X37500000Y-10200000D02*
X46500000Y-10200000D01*
X37500000Y-13800000D02*
X37500000Y-10200000D01*
X40250000Y-11250000D02*
X40250000Y-12750000D01*
X40250000Y-11250000D02*
X43750000Y-11250000D01*
X41750000Y-11250000D02*
X41750000Y-12750000D01*
X43750000Y-11250000D02*
X43750000Y-12750000D01*
X43750000Y-12750000D02*
X40250000Y-12750000D01*
X46500000Y-10200000D02*
X46500000Y-13800000D01*
X46500000Y-13800000D02*
X37500000Y-13800000D01*
%TO.C,R1*%
X59200000Y-11587500D02*
X60800000Y-11587500D01*
X59200000Y-12412500D02*
X59200000Y-11587500D01*
X60800000Y-11587500D02*
X60800000Y-12412500D01*
X60800000Y-12412500D02*
X59200000Y-12412500D01*
%TO.C,SW2*%
X37500000Y-28200000D02*
X46500000Y-28200000D01*
X37500000Y-31800000D02*
X37500000Y-28200000D01*
X40250000Y-29250000D02*
X40250000Y-30750000D01*
X40250000Y-29250000D02*
X43750000Y-29250000D01*
X41750000Y-29250000D02*
X41750000Y-30750000D01*
X43750000Y-29250000D02*
X43750000Y-30750000D01*
X43750000Y-30750000D02*
X40250000Y-30750000D01*
X46500000Y-28200000D02*
X46500000Y-31800000D01*
X46500000Y-31800000D02*
X37500000Y-31800000D01*
D14*
%TO.C,J1*%
X6225000Y-29135000D02*
X7025000Y-28385000D01*
X6225000Y-33335000D02*
X6225000Y-29135000D01*
X7025000Y-28385000D02*
X13725000Y-28385000D01*
X13725000Y-28385000D02*
X13725000Y-33335000D01*
X13725000Y-33335000D02*
X6225000Y-33335000D01*
D13*
%TO.C,R2*%
X59200000Y-29587500D02*
X60800000Y-29587500D01*
X59200000Y-30412500D02*
X59200000Y-29587500D01*
X60800000Y-29587500D02*
X60800000Y-30412500D01*
X60800000Y-30412500D02*
X59200000Y-30412500D01*
%TD*%
M02*
