%TF.GenerationSoftware,KiCad,Pcbnew,9.0.2+dfsg-1*%
%TF.CreationDate,2026-05-06T19:10:26+00:00*%
%TF.ProjectId,rgb_switches,7267625f-7377-4697-9463-6865732e6b69,rev?*%
%TF.SameCoordinates,Original*%
%TF.FileFunction,Copper,L1,Top*%
%TF.FilePolarity,Positive*%
%FSLAX46Y46*%
G04 Gerber Fmt 4.6, Leading zero omitted, Abs format (unit mm)*
G04 Created by KiCad (PCBNEW 9.0.2+dfsg-1) date 2026-05-06 19:10:26*
%MOMM*%
%LPD*%
G01*
G04 APERTURE LIST*
G04 Aperture macros list*
%AMRoundRect*
0 Rectangle with rounded corners*
0 $1 Rounding radius*
0 $2 $3 $4 $5 $6 $7 $8 $9 X,Y pos of 4 corners*
0 Add a 4 corners polygon primitive as box body*
4,1,4,$2,$3,$4,$5,$6,$7,$8,$9,$2,$3,0*
0 Add four circle primitives for the rounded corners*
1,1,$1+$1,$2,$3*
1,1,$1+$1,$4,$5*
1,1,$1+$1,$6,$7*
1,1,$1+$1,$8,$9*
0 Add four rect primitives between the rounded corners*
20,1,$1+$1,$2,$3,$4,$5,0*
20,1,$1+$1,$4,$5,$6,$7,0*
20,1,$1+$1,$6,$7,$8,$9,0*
20,1,$1+$1,$8,$9,$2,$3,0*%
G04 Aperture macros list end*
%TA.AperFunction,SMDPad,CuDef*%
%ADD10RoundRect,0.225000X-0.225000X-0.250000X0.225000X-0.250000X0.225000X0.250000X-0.225000X0.250000X0*%
%TD*%
%TA.AperFunction,SMDPad,CuDef*%
%ADD11RoundRect,0.200000X-0.200000X-0.275000X0.200000X-0.275000X0.200000X0.275000X-0.200000X0.275000X0*%
%TD*%
%TA.AperFunction,SMDPad,CuDef*%
%ADD12R,1.000000X1.600000*%
%TD*%
%TA.AperFunction,SMDPad,CuDef*%
%ADD13R,1.500000X0.900000*%
%TD*%
%TA.AperFunction,SMDPad,CuDef*%
%ADD14R,0.400000X1.650000*%
%TD*%
%TA.AperFunction,SMDPad,CuDef*%
%ADD15R,1.825000X0.700000*%
%TD*%
%TA.AperFunction,SMDPad,CuDef*%
%ADD16R,2.000000X1.500000*%
%TD*%
%TA.AperFunction,SMDPad,CuDef*%
%ADD17R,1.350000X2.000000*%
%TD*%
%TA.AperFunction,HeatsinkPad*%
%ADD18O,1.350000X1.700000*%
%TD*%
%TA.AperFunction,HeatsinkPad*%
%ADD19O,1.100000X1.500000*%
%TD*%
%TA.AperFunction,SMDPad,CuDef*%
%ADD20R,1.430000X2.500000*%
%TD*%
%TA.AperFunction,ViaPad*%
%ADD21C,0.600000*%
%TD*%
%TA.AperFunction,Conductor*%
%ADD22C,0.200000*%
%TD*%
G04 APERTURE END LIST*
D10*
%TO.P,C1,1*%
%TO.N,VBUS*%
X24225000Y-30000000D03*
%TO.P,C1,2*%
%TO.N,GND*%
X25775000Y-30000000D03*
%TD*%
D11*
%TO.P,R3,1*%
%TO.N,BLUE_DRV*%
X59175000Y-48000000D03*
%TO.P,R3,2*%
%TO.N,LED_B*%
X60825000Y-48000000D03*
%TD*%
D12*
%TO.P,SW3,1*%
%TO.N,BLUE_DRV*%
X39500000Y-46800000D03*
%TO.P,SW3,2*%
%TO.N,VBUS*%
X42000000Y-46800000D03*
%TO.P,SW3,3*%
%TO.N,N/C*%
X44500000Y-46800000D03*
%TO.P,SW3,4*%
X39500000Y-49200000D03*
%TO.P,SW3,5*%
X42000000Y-49200000D03*
%TO.P,SW3,6*%
X44500000Y-49200000D03*
%TD*%
D13*
%TO.P,D1,1*%
%TO.N,LED_R*%
X76550000Y-29300000D03*
%TO.P,D1,2*%
%TO.N,LED_G*%
X76550000Y-30700000D03*
%TO.P,D1,3*%
%TO.N,LED_B*%
X73450000Y-29300000D03*
%TO.P,D1,4*%
%TO.N,GND*%
X73450000Y-30700000D03*
%TD*%
D12*
%TO.P,SW1,1*%
%TO.N,RED_DRV*%
X39500000Y-10800000D03*
%TO.P,SW1,2*%
%TO.N,VBUS*%
X42000000Y-10800000D03*
%TO.P,SW1,3*%
%TO.N,N/C*%
X44500000Y-10800000D03*
%TO.P,SW1,4*%
X39500000Y-13200000D03*
%TO.P,SW1,5*%
X42000000Y-13200000D03*
%TO.P,SW1,6*%
X44500000Y-13200000D03*
%TD*%
D11*
%TO.P,R1,1*%
%TO.N,RED_DRV*%
X59175000Y-12000000D03*
%TO.P,R1,2*%
%TO.N,LED_R*%
X60825000Y-12000000D03*
%TD*%
D12*
%TO.P,SW2,1*%
%TO.N,GREEN_DRV*%
X39500000Y-28800000D03*
%TO.P,SW2,2*%
%TO.N,VBUS*%
X42000000Y-28800000D03*
%TO.P,SW2,3*%
%TO.N,N/C*%
X44500000Y-28800000D03*
%TO.P,SW2,4*%
X39500000Y-31200000D03*
%TO.P,SW2,5*%
X42000000Y-31200000D03*
%TO.P,SW2,6*%
X44500000Y-31200000D03*
%TD*%
D14*
%TO.P,J1,1*%
%TO.N,VBUS*%
X8675000Y-28235000D03*
%TO.P,J1,2*%
%TO.N,N/C*%
X9325000Y-28235000D03*
%TO.P,J1,3*%
X9975000Y-28235000D03*
%TO.P,J1,4*%
X10625000Y-28235000D03*
%TO.P,J1,5*%
%TO.N,GND*%
X11275000Y-28235000D03*
D15*
%TO.P,J1,6*%
X7025000Y-29435000D03*
D16*
X7125000Y-28135000D03*
D17*
X7245000Y-30185000D03*
D18*
X7245000Y-31115000D03*
D19*
X7555000Y-28115000D03*
D20*
X9015000Y-31385000D03*
X10935000Y-31385000D03*
D19*
X12395000Y-28115000D03*
D18*
X12705000Y-31115000D03*
D17*
X12725000Y-30185000D03*
D16*
X12875000Y-28115000D03*
D15*
X12975000Y-29435000D03*
%TD*%
D11*
%TO.P,R2,1*%
%TO.N,GREEN_DRV*%
X59175000Y-30000000D03*
%TO.P,R2,2*%
%TO.N,LED_G*%
X60825000Y-30000000D03*
%TD*%
D21*
%TO.N,VBUS*%
X40977300Y-27698300D03*
X43031500Y-46037500D03*
%TD*%
D22*
%TO.N,GND*%
X28116800Y-32341800D02*
X70756500Y-32341800D01*
X8221700Y-30205000D02*
X8221700Y-30185000D01*
X7125000Y-28135000D02*
X7125000Y-29186700D01*
X25775000Y-30000000D02*
X28116800Y-32341800D01*
X8221700Y-31115000D02*
X8221700Y-30205000D01*
X8221700Y-30205000D02*
X12705000Y-30205000D01*
X25775000Y-30000000D02*
X24660000Y-31115000D01*
X12725000Y-29685000D02*
X12725000Y-30185000D01*
X7025000Y-29965000D02*
X7025000Y-29435000D01*
X7125000Y-29186700D02*
X7025000Y-29286700D01*
X24660000Y-31115000D02*
X12705000Y-31115000D01*
X11818600Y-27286800D02*
X11640100Y-27108300D01*
X12395000Y-28115000D02*
X12395000Y-27063300D01*
X12705000Y-30205000D02*
X12705000Y-31115000D01*
X7025000Y-29286700D02*
X7025000Y-29435000D01*
X11818700Y-27286800D02*
X11818600Y-27286800D01*
X11275000Y-28235000D02*
X11275000Y-27108300D01*
X7245000Y-30185000D02*
X7025000Y-29965000D01*
X12875000Y-28115000D02*
X12395000Y-28115000D01*
X12705000Y-31115000D02*
X11205000Y-31115000D01*
X7145000Y-28115000D02*
X7125000Y-28135000D01*
X11205000Y-31115000D02*
X10935000Y-31385000D01*
X7245000Y-30185000D02*
X8221700Y-30185000D01*
X12975000Y-29435000D02*
X12725000Y-29685000D01*
X12395000Y-27063300D02*
X12042200Y-27063300D01*
X12042200Y-27063300D02*
X11818700Y-27286800D01*
X11640100Y-27108300D02*
X11275000Y-27108300D01*
X7555000Y-28115000D02*
X7145000Y-28115000D01*
X70756500Y-32341800D02*
X72398300Y-30700000D01*
X73450000Y-30700000D02*
X72398300Y-30700000D01*
X9015000Y-31385000D02*
X8745000Y-31115000D01*
X8745000Y-31115000D02*
X8221700Y-31115000D01*
X7245000Y-31115000D02*
X8221700Y-31115000D01*
X12725000Y-30185000D02*
X12705000Y-30205000D01*
%TO.N,RED_DRV*%
X56873300Y-9698300D02*
X59175000Y-12000000D01*
X39500000Y-9698300D02*
X56873300Y-9698300D01*
X39500000Y-10800000D02*
X39500000Y-9698300D01*
%TO.N,LED_R*%
X75498300Y-29300000D02*
X75498300Y-26673300D01*
X76550000Y-29300000D02*
X75498300Y-29300000D01*
X75498300Y-26673300D02*
X60825000Y-12000000D01*
%TO.N,LED_G*%
X75498300Y-30700000D02*
X75096600Y-30298300D01*
X76550000Y-30700000D02*
X75498300Y-30700000D01*
X62276700Y-28548300D02*
X60825000Y-30000000D01*
X74327400Y-28548300D02*
X62276700Y-28548300D01*
X75096600Y-30298300D02*
X75096600Y-29317500D01*
X75096600Y-29317500D02*
X74327400Y-28548300D01*
%TO.N,BLUE_DRV*%
X39500000Y-47901700D02*
X59076700Y-47901700D01*
X59076700Y-47901700D02*
X59175000Y-48000000D01*
X39500000Y-46800000D02*
X39500000Y-47901700D01*
%TO.N,LED_B*%
X74501700Y-29300000D02*
X74501700Y-34323300D01*
X74501700Y-34323300D02*
X60825000Y-48000000D01*
X73450000Y-29300000D02*
X74501700Y-29300000D01*
%TO.N,GREEN_DRV*%
X39500000Y-29901700D02*
X59076700Y-29901700D01*
X39500000Y-28800000D02*
X39500000Y-29901700D01*
X59076700Y-29901700D02*
X59175000Y-30000000D01*
%TO.N,VBUS*%
X40977300Y-27698300D02*
X26526700Y-27698300D01*
X42000000Y-10800000D02*
X42000000Y-11901700D01*
X42000000Y-28800000D02*
X42000000Y-27698300D01*
X42692300Y-45698300D02*
X43031500Y-46037500D01*
X42000000Y-28800000D02*
X42000000Y-27698300D01*
X8675000Y-28235000D02*
X8675000Y-27108300D01*
X26526700Y-27698300D02*
X24225000Y-30000000D01*
X42000000Y-27698300D02*
X41198300Y-27698300D01*
X20841500Y-26616500D02*
X24225000Y-30000000D01*
X42000000Y-46800000D02*
X42000000Y-45698300D01*
X41198300Y-12202300D02*
X41198300Y-27698300D01*
X42000000Y-45698300D02*
X42692300Y-45698300D01*
X41498900Y-11901700D02*
X41198300Y-12202300D01*
X42000000Y-11901700D02*
X41498900Y-11901700D01*
X9166800Y-26616500D02*
X20841500Y-26616500D01*
X8675000Y-27108300D02*
X9166800Y-26616500D01*
X41198300Y-27698300D02*
X40977300Y-27698300D01*
%TD*%
M02*
